<svg width="1492" height="400" viewBox="0 0 1492 400" fill="none" xmlns="http://www.w3.org/2000/svg">
<path fill-rule="evenodd" clip-rule="evenodd" d="M159.223 20H249.757C261.219 20 270.48 29.3775 270.48 40.9547V122.806C267.123 123.848 263.766 124.774 260.408 125.584C243.853 130.215 227.297 135.309 211.668 142.718C208.311 144.339 204.838 146.076 201.48 148.044C191.292 154.064 181.799 161.126 173.348 169.577C165.244 177.682 158.76 187.059 153.435 197.247C145.678 212.76 141.279 229.432 138.153 246.334C137.574 249.46 137.111 252.702 136.764 255.828H55.7232C44.2618 255.828 35 246.45 35 234.873V144.339C35 132.878 44.3775 123.384 55.7232 123.384H138.269V40.9547C138.269 29.3775 147.53 20 159.223 20ZM270.48 299.821V338.373C270.48 349.835 261.103 359.096 249.757 359.096H176.126C173 348.677 171.727 337.447 171.843 326.217C172.769 326.912 173.811 327.606 174.853 328.185C178.21 329.922 181.915 330.501 185.619 329.922C188.745 329.343 191.64 328.185 194.418 326.564C216.299 313.135 246.052 308.388 270.365 299.937L270.48 299.821Z" fill="white"/>
<path fill-rule="evenodd" clip-rule="evenodd" d="M358.004 99.9985C330.566 120.953 296.529 128.131 263.65 137.161C247.442 141.561 231.581 146.539 216.994 153.485C213.636 155.106 210.51 156.611 207.5 158.463C198.354 163.789 189.556 170.041 181.799 178.029C174.39 185.438 168.601 193.658 164.202 202.688C157.024 216.812 152.972 232.442 149.962 248.418C144.636 277.593 144.868 307.809 150.193 336.984C152.509 348.793 154.593 361.064 159.339 372.179C160.381 374.61 161.423 377.851 163.739 379.356C166.749 381.44 170.916 378.083 169.411 374.726C157.95 350.298 157.95 319.618 164.665 293.338C172.19 263.353 192.682 243.208 219.309 228.505C226.371 224.685 233.781 221.096 241.19 217.623C241.422 217.623 241.537 217.623 241.537 217.623C243.158 217.276 244.2 219.591 242.811 220.401C234.128 226.074 225.677 231.515 217.804 237.536C178.673 266.016 168.138 320.428 184.114 317.997C185.388 317.766 186.777 317.303 188.514 316.261C211.437 302.368 240.495 297.737 266.66 288.591C275.806 285.465 284.836 281.529 292.94 276.667C325.009 257.101 345.269 225.264 354.762 189.143C361.824 162.4 361.477 131.952 365.529 104.398C366.224 100.925 363.445 98.3776 360.435 98.9565C359.393 99.0723 358.699 99.4196 358.004 99.9985Z" fill="#13182F"/>
<path d="M528.89 169.66C557.18 169.66 576.5 188.52 576.5 217.04V298H542V224.4C542 210.14 532.57 200.71 519 200.71C505.43 200.71 496 210.14 496 224.4V298H461.5V126.65H496V183.92C502.9 174.26 514.86 169.66 528.89 169.66ZM716.074 231.53C716.074 236.59 715.614 241.42 714.464 244.87H626.144C628.214 260.74 639.484 270.86 656.504 270.86C668.694 270.86 677.664 265.57 682.494 257.06L710.094 270.17C702.504 288.57 681.804 300.76 656.044 300.76C616.254 300.76 590.264 271.32 590.264 234.98C590.264 197.49 617.864 169.66 653.744 169.66C688.934 169.66 716.074 196.8 716.074 231.53ZM626.834 219.57H679.504C678.124 206.23 668.004 197.26 653.744 197.26C640.174 197.26 630.284 205.08 626.834 219.57ZM783.268 169.66C815.238 169.66 837.088 188.29 837.088 215.2V298H804.888V286.5C795.458 296.39 783.958 300.76 769.468 300.76C740.948 300.76 723.008 284.66 723.008 263.73C723.008 245.1 737.728 232.91 763.258 227.62L802.588 219.34V215.2C802.588 205.77 794.768 199.56 783.268 199.56C771.078 199.56 760.958 206.69 757.278 217.96L727.608 203.7C734.968 183 756.588 169.66 783.268 169.66ZM774.758 275.46C790.398 275.46 802.588 264.19 802.588 250.16V244.18L769.468 251.54C762.338 253.15 758.658 257.52 758.658 263.27C758.658 270.86 764.868 275.46 774.758 275.46ZM855.465 298V126.65H889.965V298H855.465ZM973.225 299.38C942.865 299.38 925.385 282.13 925.385 252.69V202.32H903.765V172.42H905.375C918.255 172.42 925.385 165.98 925.385 153.1V134.7H959.885V172.42H989.325V202.32H959.885V252.69C959.885 265.57 966.785 271.78 981.275 271.78C983.345 271.78 986.105 271.55 989.325 271.09V298.23C984.725 298.92 978.515 299.38 973.225 299.38ZM1072.89 169.66C1101.18 169.66 1120.5 188.52 1120.5 217.04V298H1086V224.4C1086 210.14 1076.57 200.71 1063 200.71C1049.43 200.71 1040 210.14 1040 224.4V298H1005.5V126.65H1040V183.92C1046.9 174.26 1058.86 169.66 1072.89 169.66ZM1201.43 300.76C1164.17 300.76 1134.27 273.16 1134.27 235.21C1134.27 197.26 1164.17 169.66 1201.43 169.66C1238.69 169.66 1268.59 197.26 1268.59 235.21C1268.59 273.16 1238.69 300.76 1201.43 300.76ZM1201.43 269.71C1220.29 269.71 1232.94 255.45 1232.94 235.21C1232.94 215.2 1220.29 200.71 1201.43 200.71C1182.57 200.71 1169.92 215.2 1169.92 235.21C1169.92 255.45 1182.57 269.71 1201.43 269.71ZM1350.93 171.04H1364.04V200.94H1347.48C1330.69 200.94 1319.19 211.75 1319.19 230.38V298H1284.69V172.42H1316.89V191.28C1323.33 175.64 1335.52 171.04 1350.93 171.04ZM1431.27 169.66C1463.24 169.66 1485.09 188.29 1485.09 215.2V298H1452.89V286.5C1443.46 296.39 1431.96 300.76 1417.47 300.76C1388.95 300.76 1371.01 284.66 1371.01 263.73C1371.01 245.1 1385.73 232.91 1411.26 227.62L1450.59 219.34V215.2C1450.59 205.77 1442.77 199.56 1431.27 199.56C1419.08 199.56 1408.96 206.69 1405.28 217.96L1375.61 203.7C1382.97 183 1404.59 169.66 1431.27 169.66ZM1422.76 275.46C1438.4 275.46 1450.59 264.19 1450.59 250.16V244.18L1417.47 251.54C1410.34 253.15 1406.66 257.52 1406.66 263.27C1406.66 270.86 1412.87 275.46 1422.76 275.46Z" fill="white"/>
</svg>
